# FreeCAD v2020.12.17 build23076 +3024 (Git) Arch module
# http://www.freecadweb.org
mtllib GlowCross.mtl
o GlowCross
v -46.0 -1.0 47.0
v -1.0 -1.0 47.0
v -1.0 -1.0 48.0
v -46.0 -1.0 48.0
v -1.0 -46.0 47.0
v -1.0 -46.0 48.0
v -46.0 1.0 47.0
v -46.0 1.0 48.0
v 1.0 -1.0 47.0
v 1.0 -46.0 47.0
v -1.0 1.0 47.0
v 1.0 1.0 47.0
v 46.0 -1.0 47.0
v -1.0 46.0 47.0
v 1.0 46.0 47.0
v 46.0 1.0 47.0
v 1.0 -1.0 48.0
v 1.0 -46.0 48.0
v -1.0 1.0 48.0
v 1.0 1.0 48.0
v 46.0 -1.0 48.0
v 1.0 46.0 48.0
v -1.0 46.0 48.0
v 46.0 1.0 48.0
v -46.0 -47.0 -1.0
v -1.0 -47.0 -1.0
v -1.0 -48.0 -1.0
v -46.0 -48.0 -1.0
v -1.0 -47.0 -46.0
v -1.0 -48.0 -46.0
v -46.0 -48.0 1.0
v -46.0 -47.0 1.0
v 1.0 -47.0 -1.0
v 1.0 -47.0 -46.0
v -1.0 -47.0 1.0
v 1.0 -47.0 1.0
v -1.0 -47.0 46.0
v 46.0 -47.0 -1.0
v 1.0 -47.0 46.0
v 46.0 -47.0 1.0
v 1.0 -48.0 -1.0
v 1.0 -48.0 -46.0
v -1.0 -48.0 1.0
v 1.0 -48.0 1.0
v -1.0 -48.0 46.0
v 46.0 -48.0 -1.0
v 1.0 -48.0 46.0
v 46.0 -48.0 1.0
v -46.0 1.0 -47.0
v -1.0 1.0 -47.0
v -1.0 1.0 -48.0
v -46.0 1.0 -48.0
v -1.0 46.0 -47.0
v -1.0 46.0 -48.0
v -46.0 -1.0 -47.0
v -46.0 -1.0 -48.0
v 1.0 1.0 -47.0
v 1.0 46.0 -47.0
v -1.0 -1.0 -47.0
v 1.0 -1.0 -47.0
v 46.0 1.0 -47.0
v -1.0 -46.0 -47.0
v 1.0 -46.0 -47.0
v 46.0 -1.0 -47.0
v 1.0 1.0 -48.0
v 1.0 46.0 -48.0
v -1.0 -1.0 -48.0
v 1.0 -1.0 -48.0
v 46.0 1.0 -48.0
v 1.0 -46.0 -48.0
v -1.0 -46.0 -48.0
v 46.0 -1.0 -48.0
v -46.0 47.0 1.0
v -1.0 47.0 1.0
v -1.0 48.0 1.0
v -46.0 48.0 1.0
v -1.0 48.0 46.0
v -1.0 47.0 46.0
v -46.0 47.0 -1.0
v -46.0 48.0 -1.0
v 1.0 47.0 1.0
v 1.0 47.0 46.0
v -1.0 47.0 -1.0
v 1.0 47.0 -1.0
v -1.0 47.0 -46.0
v 1.0 47.0 -46.0
v 46.0 47.0 -1.0
v 46.0 47.0 1.0
v 1.0 48.0 1.0
v 1.0 48.0 46.0
v -1.0 48.0 -1.0
v 1.0 48.0 -1.0
v 46.0 48.0 1.0
v 1.0 48.0 -46.0
v -1.0 48.0 -46.0
v 46.0 48.0 -1.0
v 47.0 -1.0 46.0
v 47.0 -1.0 1.0
v 48.0 -1.0 1.0
v 48.0 -1.0 46.0
v 47.0 -46.0 1.0
v 48.0 -46.0 1.0
v 47.0 1.0 46.0
v 48.0 1.0 46.0
v 47.0 1.0 1.0
v 47.0 -1.0 -1.0
v 47.0 -46.0 -1.0
v 47.0 1.0 -1.0
v 47.0 46.0 1.0
v 47.0 46.0 -1.0
v 47.0 1.0 -46.0
v 47.0 -1.0 -46.0
v 48.0 -1.0 -1.0
v 48.0 -46.0 -1.0
v 48.0 1.0 1.0
v 48.0 1.0 -1.0
v 48.0 -1.0 -46.0
v 48.0 1.0 -46.0
v 48.0 46.0 -1.0
v 48.0 46.0 1.0
v -47.0 1.0 46.0
v -47.0 1.0 1.0
v -48.0 1.0 1.0
v -48.0 1.0 46.0
v -47.0 46.0 1.0
v -48.0 46.0 1.0
v -47.0 -1.0 46.0
v -48.0 -1.0 46.0
v -47.0 1.0 -1.0
v -47.0 46.0 -1.0
v -47.0 -1.0 1.0
v -47.0 -1.0 -1.0
v -47.0 1.0 -46.0
v -47.0 -46.0 1.0
v -47.0 -46.0 -1.0
v -47.0 -1.0 -46.0
v -48.0 1.0 -1.0
v -48.0 46.0 -1.0
v -48.0 -1.0 1.0
v -48.0 -1.0 -1.0
v -48.0 1.0 -46.0
v -48.0 -46.0 -1.0
v -48.0 -46.0 1.0
v -48.0 -1.0 -46.0
vn 0.0 -1.0 0.0
vn 0.0 -1.0 0.0
vn -1.0 0.0 0.0
vn -1.0 -0.0 0.0
vn -1.0 0.0 0.0
vn -1.0 0.0 0.0
vn 0.0 0.0 -1.0
vn 0.0 0.0 -1.0
vn 0.0 0.0 -1.0
vn 0.0 0.0 -1.0
vn 0.0 0.0 -1.0
vn 0.0 0.0 -1.0
vn 0.0 0.0 -1.0
vn 0.0 0.0 -1.0
vn 0.0 0.0 -1.0
vn 0.0 0.0 -1.0
vn 0.0 0.0 1.0
vn 0.0 0.0 1.0
vn 0.0 0.0 1.0
vn 0.0 0.0 1.0
vn 0.0 0.0 1.0
vn 0.0 0.0 1.0
vn 0.0 0.0 1.0
vn 0.0 0.0 1.0
vn 0.0 0.0 1.0
vn 0.0 0.0 1.0
vn 0.0 -1.0 0.0
vn 0.0 -1.0 0.0
vn 0.0 1.0 0.0
vn 0.0 1.0 -0.0
vn -1.0 0.0 0.0
vn -1.0 0.0 0.0
vn 0.0 1.0 0.0
vn 0.0 1.0 -0.0
vn 1.0 0.0 0.0
vn 1.0 0.0 0.0
vn 0.0 1.0 0.0
vn 0.0 1.0 -0.0
vn 1.0 0.0 0.0
vn 1.0 0.0 0.0
vn 0.0 -1.0 0.0
vn 0.0 -1.0 0.0
vn 1.0 0.0 0.0
vn 1.0 -0.0 0.0
vn 0.0 0.0 -1.0
vn 0.0 0.0 -1.0
vn -1.0 -0.0 -0.0
vn -1.0 0.0 0.0
vn -1.0 0.0 0.0
vn -1.0 -0.0 -0.0
vn -0.0 1.0 0.0
vn 0.0 1.0 0.0
vn -0.0 1.0 0.0
vn 0.0 1.0 0.0
vn 0.0 1.0 0.0
vn -0.0 1.0 0.0
vn 0.0 1.0 0.0
vn 0.0 1.0 0.0
vn -0.0 1.0 0.0
vn -0.0 1.0 0.0
vn -0.0 -1.0 0.0
vn 0.0 -1.0 -0.0
vn -0.0 -1.0 0.0
vn 0.0 -1.0 -0.0
vn 0.0 -1.0 0.0
vn -0.0 -1.0 -0.0
vn 0.0 -1.0 0.0
vn 0.0 -1.0 0.0
vn -0.0 -1.0 -0.0
vn -0.0 -1.0 -0.0
vn 0.0 0.0 -1.0
vn 0.0 0.0 -1.0
vn 0.0 0.0 1.0
vn 0.0 0.0 1.0
vn -1.0 0.0 -0.0
vn -1.0 -0.0 0.0
vn 0.0 0.0 1.0
vn 0.0 0.0 1.0
vn 1.0 0.0 -0.0
vn 1.0 0.0 0.0
vn 0.0 0.0 1.0
vn 0.0 0.0 1.0
vn 1.0 0.0 -0.0
vn 1.0 0.0 0.0
vn 0.0 0.0 -1.0
vn 0.0 0.0 -1.0
vn 1.0 0.0 -0.0
vn 1.0 0.0 0.0
vn -0.0 1.0 0.0
vn 0.0 1.0 0.0
vn -1.0 0.0 0.0
vn -1.0 0.0 0.0
vn -1.0 0.0 0.0
vn -1.0 0.0 0.0
vn 0.0 0.0 1.0
vn 0.0 0.0 1.0
vn -0.0 0.0 1.0
vn 0.0 0.0 1.0
vn -0.0 0.0 1.0
vn 0.0 0.0 1.0
vn 0.0 0.0 1.0
vn 0.0 0.0 1.0
vn -0.0 0.0 1.0
vn 0.0 0.0 1.0
vn -0.0 0.0 -1.0
vn 0.0 0.0 -1.0
vn 0.0 0.0 -1.0
vn 0.0 0.0 -1.0
vn 0.0 0.0 -1.0
vn 0.0 0.0 -1.0
vn -0.0 0.0 -1.0
vn 0.0 0.0 -1.0
vn 0.0 0.0 -1.0
vn 0.0 0.0 -1.0
vn -0.0 1.0 0.0
vn 0.0 1.0 0.0
vn -0.0 -1.0 0.0
vn 0.0 -1.0 -0.0
vn -1.0 0.0 0.0
vn -1.0 0.0 0.0
vn 0.0 -1.0 0.0
vn -0.0 -1.0 -0.0
vn 1.0 0.0 0.0
vn 1.0 0.0 0.0
vn -0.0 -1.0 0.0
vn 0.0 -1.0 -0.0
vn 1.0 0.0 0.0
vn 1.0 0.0 0.0
vn -0.0 1.0 0.0
vn 0.0 1.0 0.0
vn 1.0 0.0 0.0
vn 1.0 0.0 0.0
vn 0.0 0.0 1.0
vn 0.0 0.0 1.0
vn -1.0 0.0 0.0
vn -1.0 0.0 0.0
vn -1.0 0.0 0.0
vn -1.0 0.0 0.0
vn 0.0 -1.0 0.0
vn 0.0 -1.0 0.0
vn 0.0 -1.0 0.0
vn 0.0 -1.0 0.0
vn 0.0 -1.0 0.0
vn 0.0 -1.0 0.0
vn 0.0 -1.0 0.0
vn 0.0 -1.0 0.0
vn 0.0 -1.0 0.0
vn 0.0 -1.0 0.0
vn 0.0 1.0 0.0
vn 0.0 1.0 0.0
vn 0.0 1.0 -0.0
vn 0.0 1.0 -0.0
vn 0.0 1.0 0.0
vn 0.0 1.0 -0.0
vn 0.0 1.0 0.0
vn 0.0 1.0 0.0
vn 0.0 1.0 -0.0
vn 0.0 1.0 -0.0
vn 0.0 0.0 1.0
vn -0.0 0.0 1.0
vn 0.0 0.0 -1.0
vn 0.0 0.0 -1.0
vn -1.0 0.0 0.0
vn -1.0 0.0 0.0
vn 0.0 0.0 -1.0
vn 0.0 0.0 -1.0
vn 1.0 0.0 0.0
vn 1.0 -0.0 0.0
vn 0.0 0.0 -1.0
vn 0.0 0.0 -1.0
vn 1.0 0.0 0.0
vn 1.0 -0.0 0.0
vn 0.0 0.0 1.0
vn 0.0 0.0 1.0
vn 1.0 -0.0 0.0
vn 1.0 0.0 0.0
vn 0.0 -1.0 0.0
vn 0.0 -1.0 0.0
vn -0.0 0.0 1.0
vn 0.0 0.0 1.0
vn 0.0 0.0 1.0
vn -0.0 0.0 1.0
vn -1.0 -0.0 0.0
vn -1.0 0.0 -0.0
vn -1.0 -0.0 -0.0
vn -1.0 0.0 0.0
vn -1.0 0.0 0.0
vn -1.0 -0.0 -0.0
vn -1.0 -0.0 -0.0
vn -1.0 0.0 0.0
vn -1.0 0.0 0.0
vn -1.0 -0.0 -0.0
vn 1.0 0.0 -0.0
vn 1.0 0.0 0.0
vn 1.0 0.0 -0.0
vn 1.0 0.0 0.0
vn 1.0 0.0 -0.0
vn 1.0 0.0 0.0
vn 1.0 0.0 0.0
vn 1.0 0.0 -0.0
vn 1.0 0.0 -0.0
vn 1.0 0.0 0.0
vn 0.0 -1.0 0.0
vn 0.0 -1.0 -0.0
vn 0.0 1.0 0.0
vn 0.0 1.0 0.0
vn 0.0 0.0 1.0
vn -0.0 0.0 1.0
vn 0.0 1.0 0.0
vn 0.0 1.0 0.0
vn 0.0 0.0 -1.0
vn 0.0 0.0 -1.0
vn 0.0 1.0 0.0
vn 0.0 1.0 0.0
vn 0.0 0.0 -1.0
vn 0.0 0.0 -1.0
vn 0.0 -1.0 0.0
vn 0.0 -1.0 0.0
vn 0.0 0.0 -1.0
vn 0.0 0.0 -1.0
vn 0.0 1.0 0.0
vn 0.0 1.0 0.0
vn 0.0 -0.0 1.0
vn 0.0 0.0 1.0
vn 0.0 -0.0 1.0
vn 0.0 0.0 1.0
vn 1.0 -0.0 0.0
vn 1.0 -0.0 0.0
vn 1.0 0.0 0.0
vn 1.0 0.0 0.0
vn 1.0 0.0 0.0
vn 1.0 -0.0 0.0
vn 1.0 -0.0 0.0
vn 1.0 -0.0 0.0
vn 1.0 0.0 0.0
vn 1.0 0.0 0.0
vn -1.0 0.0 0.0
vn -1.0 0.0 0.0
vn -1.0 0.0 0.0
vn -1.0 0.0 0.0
vn -1.0 0.0 0.0
vn -1.0 0.0 0.0
vn -1.0 0.0 0.0
vn -1.0 0.0 0.0
vn -1.0 0.0 0.0
vn -1.0 0.0 0.0
vn 0.0 1.0 0.0
vn 0.0 1.0 0.0
vn 0.0 -1.0 0.0
vn 0.0 -1.0 0.0
vn 0.0 -0.0 1.0
vn 0.0 0.0 1.0
vn 0.0 -1.0 0.0
vn 0.0 -1.0 0.0
vn 0.0 -0.0 -1.0
vn -0.0 0.0 -1.0
vn 0.0 -1.0 0.0
vn 0.0 -1.0 0.0
vn 0.0 -0.0 -1.0
vn -0.0 0.0 -1.0
vn 0.0 1.0 0.0
vn 0.0 1.0 0.0
vn -0.0 -0.0 -1.0
vn 0.0 0.0 -1.0
usemtl color_ff5500
f 1//1 2//1 3//1 
f 1//2 3//2 4//2 
f 2//3 5//3 3//3 
f 3//4 5//4 6//4 
f 7//5 1//5 4//5 
f 7//6 4//6 8//6 
f 7//7 2//7 1//7 
f 2//8 9//8 5//8 
f 5//9 9//9 10//9 
f 7//10 11//10 2//10 
f 2//11 11//11 9//11 
f 11//12 12//12 9//12 
f 12//13 13//13 9//13 
f 14//14 15//14 11//14 
f 11//15 15//15 12//15 
f 12//16 16//16 13//16 
f 3//17 8//17 4//17 
f 17//18 3//18 6//18 
f 17//19 6//19 18//19 
f 19//20 8//20 3//20 
f 19//21 3//21 17//21 
f 20//22 19//22 17//22 
f 21//23 20//23 17//23 
f 22//24 23//24 19//24 
f 22//25 19//25 20//25 
f 24//26 20//26 21//26 
f 5//27 10//27 6//27 
f 6//28 10//28 18//28 
f 11//29 7//29 8//29 
f 11//30 8//30 19//30 
f 14//31 11//31 19//31 
f 14//32 19//32 23//32 
f 15//33 14//33 23//33 
f 15//34 23//34 22//34 
f 12//35 15//35 22//35 
f 12//36 22//36 20//36 
f 16//37 12//37 20//37 
f 16//38 20//38 24//38 
f 13//39 16//39 24//39 
f 13//40 24//40 21//40 
f 9//41 13//41 21//41 
f 9//42 21//42 17//42 
f 10//43 9//43 18//43 
f 18//44 9//44 17//44 
f 25//45 26//45 27//45 
f 25//46 27//46 28//46 
f 26//47 29//47 27//47 
f 27//48 29//48 30//48 
f 31//49 25//49 28//49 
f 32//50 25//50 31//50 
f 26//51 33//51 29//51 
f 29//52 33//52 34//52 
f 32//53 35//53 25//53 
f 25//54 35//54 26//54 
f 26//55 35//55 33//55 
f 35//56 36//56 33//56 
f 35//57 37//57 36//57 
f 36//58 38//58 33//58 
f 37//59 39//59 36//59 
f 36//60 40//60 38//60 
f 41//61 27//61 30//61 
f 41//62 30//62 42//62 
f 43//63 31//63 28//63 
f 43//64 28//64 27//64 
f 43//65 27//65 41//65 
f 44//66 43//66 41//66 
f 45//67 43//67 44//67 
f 46//68 44//68 41//68 
f 47//69 45//69 44//69 
f 48//70 44//70 46//70 
f 29//71 34//71 30//71 
f 30//72 34//72 42//72 
f 35//73 32//73 31//73 
f 35//74 31//74 43//74 
f 37//75 35//75 43//75 
f 37//76 43//76 45//76 
f 39//77 37//77 45//77 
f 39//78 45//78 47//78 
f 36//79 39//79 47//79 
f 36//80 47//80 44//80 
f 40//81 36//81 44//81 
f 40//82 44//82 48//82 
f 38//83 40//83 48//83 
f 38//84 48//84 46//84 
f 33//85 38//85 46//85 
f 33//86 46//86 41//86 
f 34//87 33//87 42//87 
f 42//88 33//88 41//88 
f 49//89 50//89 51//89 
f 49//90 51//90 52//90 
f 50//91 53//91 51//91 
f 51//92 53//92 54//92 
f 55//93 49//93 52//93 
f 55//94 52//94 56//94 
f 55//95 50//95 49//95 
f 50//96 57//96 53//96 
f 53//97 57//97 58//97 
f 55//98 59//98 50//98 
f 50//99 59//99 57//99 
f 59//100 60//100 57//100 
f 60//101 61//101 57//101 
f 62//102 63//102 59//102 
f 59//103 63//103 60//103 
f 60//104 64//104 61//104 
f 51//105 56//105 52//105 
f 65//106 51//106 54//106 
f 65//107 54//107 66//107 
f 67//108 56//108 51//108 
f 67//109 51//109 65//109 
f 68//110 67//110 65//110 
f 69//111 68//111 65//111 
f 70//112 71//112 67//112 
f 70//113 67//113 68//113 
f 72//114 68//114 69//114 
f 53//115 58//115 54//115 
f 54//116 58//116 66//116 
f 59//117 55//117 56//117 
f 59//118 56//118 67//118 
f 62//119 59//119 67//119 
f 62//120 67//120 71//120 
f 70//121 62//121 71//121 
f 63//122 62//122 70//122 
f 60//123 63//123 70//123 
f 60//124 70//124 68//124 
f 64//125 60//125 68//125 
f 64//126 68//126 72//126 
f 61//127 64//127 72//127 
f 61//128 72//128 69//128 
f 57//129 61//129 69//129 
f 57//130 69//130 65//130 
f 58//131 57//131 66//131 
f 66//132 57//132 65//132 
f 73//133 74//133 75//133 
f 73//134 75//134 76//134 
f 74//135 77//135 75//135 
f 74//136 78//136 77//136 
f 79//137 73//137 76//137 
f 79//138 76//138 80//138 
f 79//139 74//139 73//139 
f 74//140 81//140 78//140 
f 78//141 81//141 82//141 
f 79//142 83//142 74//142 
f 74//143 83//143 81//143 
f 83//144 84//144 81//144 
f 85//145 86//145 83//145 
f 83//146 86//146 84//146 
f 81//147 87//147 88//147 
f 84//148 87//148 81//148 
f 75//149 80//149 76//149 
f 89//150 75//150 77//150 
f 89//151 77//151 90//151 
f 91//152 80//152 75//152 
f 91//153 75//153 89//153 
f 92//154 91//154 89//154 
f 93//155 92//155 89//155 
f 94//156 95//156 91//156 
f 94//157 91//157 92//157 
f 96//158 92//158 93//158 
f 78//159 82//159 77//159 
f 77//160 82//160 90//160 
f 83//161 79//161 80//161 
f 83//162 80//162 91//162 
f 85//163 83//163 91//163 
f 85//164 91//164 95//164 
f 86//165 85//165 95//165 
f 86//166 95//166 94//166 
f 92//167 86//167 94//167 
f 84//168 86//168 92//168 
f 87//169 84//169 92//169 
f 87//170 92//170 96//170 
f 93//171 87//171 96//171 
f 88//172 87//172 93//172 
f 81//173 88//173 93//173 
f 81//174 93//174 89//174 
f 82//175 81//175 90//175 
f 90//176 81//176 89//176 
f 97//177 98//177 99//177 
f 97//178 99//178 100//178 
f 98//179 101//179 99//179 
f 99//180 101//180 102//180 
f 103//181 97//181 100//181 
f 103//182 100//182 104//182 
f 103//183 98//183 97//183 
f 103//184 105//184 98//184 
f 98//185 106//185 101//185 
f 101//186 106//186 107//186 
f 98//187 108//187 106//187 
f 105//188 108//188 98//188 
f 109//189 110//189 105//189 
f 105//190 110//190 108//190 
f 106//191 111//191 112//191 
f 108//192 111//192 106//192 
f 113//193 99//193 102//193 
f 113//194 102//194 114//194 
f 115//195 104//195 100//195 
f 115//196 100//196 99//196 
f 116//197 115//197 99//197 
f 116//198 99//198 113//198 
f 117//199 116//199 113//199 
f 118//200 116//200 117//200 
f 119//201 120//201 115//201 
f 119//202 115//202 116//202 
f 101//203 107//203 102//203 
f 102//204 107//204 114//204 
f 105//205 103//205 104//205 
f 105//206 104//206 115//206 
f 109//207 105//207 115//207 
f 109//208 115//208 120//208 
f 110//209 109//209 120//209 
f 110//210 120//210 119//210 
f 108//211 110//211 119//211 
f 108//212 119//212 116//212 
f 111//213 108//213 116//213 
f 111//214 116//214 118//214 
f 112//215 111//215 118//215 
f 112//216 118//216 117//216 
f 106//217 112//217 117//217 
f 106//218 117//218 113//218 
f 107//219 113//219 114//219 
f 107//220 106//220 113//220 
f 121//221 122//221 123//221 
f 121//222 123//222 124//222 
f 122//223 125//223 123//223 
f 123//224 125//224 126//224 
f 127//225 121//225 124//225 
f 127//226 124//226 128//226 
f 127//227 122//227 121//227 
f 122//228 129//228 125//228 
f 125//229 129//229 130//229 
f 127//230 131//230 122//230 
f 122//231 132//231 129//231 
f 131//232 132//232 122//232 
f 132//233 133//233 129//233 
f 134//234 135//234 131//234 
f 131//235 135//235 132//235 
f 132//236 136//236 133//236 
f 123//237 128//237 124//237 
f 137//238 123//238 126//238 
f 137//239 126//239 138//239 
f 139//240 128//240 123//240 
f 140//241 123//241 137//241 
f 140//242 139//242 123//242 
f 141//243 140//243 137//243 
f 142//244 143//244 139//244 
f 142//245 139//245 140//245 
f 144//246 140//246 141//246 
f 125//247 138//247 126//247 
f 125//248 130//248 138//248 
f 131//249 127//249 128//249 
f 131//250 128//250 139//250 
f 134//251 131//251 139//251 
f 134//252 139//252 143//252 
f 142//253 134//253 143//253 
f 135//254 134//254 142//254 
f 132//255 135//255 142//255 
f 132//256 142//256 140//256 
f 136//257 132//257 140//257 
f 136//258 140//258 144//258 
f 133//259 136//259 144//259 
f 133//260 144//260 141//260 
f 129//261 133//261 141//261 
f 129//262 141//262 137//262 
f 130//263 129//263 138//263 
f 138//264 129//264 137//264 
